<?xml version="1.0" standalone="no"?>
<!DOCTYPE svg PUBLIC "-//W3C//DTD SVG 20010904//EN"
 "http://www.w3.org/TR/2001/REC-SVG-20010904/DTD/svg10.dtd">
<svg version="1.0" xmlns="http://www.w3.org/2000/svg"
 width="660.000000pt" height="660.000000pt" viewBox="0 0 660.000000 660.000000"
 preserveAspectRatio="xMidYMid meet">
<metadata>
Created by potrace 1.14, written by Peter Selinger 2001-2017
</metadata>
<g transform="translate(0.000000,660.000000) scale(0.100000,-0.100000)"
fill="#000000" stroke="none">
<path d="M1749 6563 c-13 -16 -12 -17 4 -4 16 13 21 21 13 21 -2 0 -10 -8 -17
-17z"/>
<path d="M3836 6567 c3 -10 9 -15 12 -12 3 3 0 11 -7 18 -10 9 -11 8 -5 -6z"/>
<path d="M625 6560 c-3 -6 1 -7 9 -4 18 7 21 14 7 14 -6 0 -13 -4 -16 -10z"/>
<path d="M1190 6566 c0 -2 7 -7 16 -10 8 -3 12 -2 9 4 -6 10 -25 14 -25 6z"/>
<path d="M1670 6566 c0 -2 7 -7 16 -10 8 -3 12 -2 9 4 -6 10 -25 14 -25 6z"/>
<path d="M4465 6560 c-3 -6 1 -7 9 -4 18 7 21 14 7 14 -6 0 -13 -4 -16 -10z"/>
<path d="M5030 6566 c0 -2 7 -7 16 -10 8 -3 12 -2 9 4 -6 10 -25 14 -25 6z"/>
<path d="M116 6513 c-6 -14 -5 -15 5 -6 7 7 10 15 7 18 -3 3 -9 -2 -12 -12z"/>
<path d="M2516 6513 c-6 -14 -5 -15 5 -6 7 7 10 15 7 18 -3 3 -9 -2 -12 -12z"/>
<path d="M2156 6473 c-6 -14 -5 -15 5 -6 7 7 10 15 7 18 -3 3 -9 -2 -12 -12z"/>
<path d="M2787 6479 c7 -7 15 -10 18 -7 3 3 -2 9 -12 12 -14 6 -15 5 -6 -5z"/>
<path d="M4159 6473 c-13 -16 -12 -17 4 -4 16 13 21 21 13 21 -2 0 -10 -8 -17
-17z"/>
<path d="M4227 6479 c7 -7 15 -10 18 -7 3 3 -2 9 -12 12 -14 6 -15 5 -6 -5z"/>
<path d="M2354 6440 c0 -13 4 -16 10 -10 7 7 7 13 0 20 -6 6 -10 3 -10 -10z"/>
<path d="M2510 6456 c0 -2 8 -10 18 -17 15 -13 16 -12 3 4 -13 16 -21 21 -21
13z"/>
<path d="M4029 6443 c-13 -16 -12 -17 4 -4 16 13 21 21 13 21 -2 0 -10 -8 -17
-17z"/>
<path d="M5716 6447 c3 -10 9 -15 12 -12 3 3 0 11 -7 18 -10 9 -11 8 -5 -6z"/>
<path d="M3867 6439 c7 -7 15 -10 18 -7 3 3 -2 9 -12 12 -14 6 -15 5 -6 -5z"/>
<path d="M1750 6416 c0 -2 8 -10 18 -17 15 -13 16 -12 3 4 -13 16 -21 21 -21
13z"/>
<path d="M6149 6403 c-13 -16 -12 -17 4 -4 16 13 21 21 13 21 -2 0 -10 -8 -17
-17z"/>
<path d="M5185 6400 c-3 -6 1 -7 9 -4 18 7 21 14 7 14 -6 0 -13 -4 -16 -10z"/>
<path d="M6076 6393 c-6 -14 -5 -15 5 -6 7 7 10 15 7 18 -3 3 -9 -2 -12 -12z"/>
<path d="M2516 6367 c3 -10 9 -15 12 -12 3 3 0 11 -7 18 -10 9 -11 8 -5 -6z"/>
<path d="M3875 6369 c-4 -6 -5 -12 -2 -15 2 -3 7 2 10 11 7 17 1 20 -8 4z"/>
<path d="M756 6353 c-6 -14 -5 -15 5 -6 7 7 10 15 7 18 -3 3 -9 -2 -12 -12z"/>
<path d="M3700 6366 c0 -2 8 -10 18 -17 15 -13 16 -12 3 4 -13 16 -21 21 -21
13z"/>
<path d="M4159 6353 c-13 -16 -12 -17 4 -4 16 13 21 21 13 21 -2 0 -10 -8 -17
-17z"/>
<path d="M5470 6361 c0 -6 4 -13 10 -16 6 -3 7 1 4 9 -7 18 -14 21 -14 7z"/>
<path d="M6075 6329 c-4 -6 -5 -12 -2 -15 2 -3 7 2 10 11 7 17 1 20 -8 4z"/>
<path d="M1107 6319 c7 -7 15 -10 18 -7 3 3 -2 9 -12 12 -14 6 -15 5 -6 -5z"/>
<path d="M4947 6319 c7 -7 15 -10 18 -7 3 3 -2 9 -12 12 -14 6 -15 5 -6 -5z"/>
<path d="M5426 6318 c3 -5 10 -6 15 -3 13 9 11 12 -6 12 -8 0 -12 -4 -9 -9z"/>
<path d="M1660 6286 c0 -2 8 -10 18 -17 15 -13 16 -12 3 4 -13 16 -21 21 -21
13z"/>
<path d="M1780 6286 c0 -2 8 -10 18 -17 15 -13 16 -12 3 4 -13 16 -21 21 -21
13z"/>
<path d="M4715 6281 c-3 -5 -2 -12 3 -15 5 -3 9 1 9 9 0 17 -3 19 -12 6z"/>
<path d="M6360 6280 c-9 -6 -10 -10 -3 -10 6 0 15 5 18 10 8 12 4 12 -15 0z"/>
<path d="M5429 6243 c-13 -16 -12 -17 4 -4 16 13 21 21 13 21 -2 0 -10 -8 -17
-17z"/>
<path d="M5830 6256 c0 -2 8 -10 18 -17 15 -13 16 -12 3 4 -13 16 -21 21 -21
13z"/>
<path d="M6229 6243 c-13 -16 -12 -17 4 -4 16 13 21 21 13 21 -2 0 -10 -8 -17
-17z"/>
<path d="M1430 6246 c0 -2 7 -7 16 -10 8 -3 12 -2 9 4 -6 10 -25 14 -25 6z"/>
<path d="M6150 6246 c0 -2 7 -7 16 -10 8 -3 12 -2 9 4 -6 10 -25 14 -25 6z"/>
<path d="M1795 6209 c-4 -6 -5 -12 -2 -15 2 -3 7 2 10 11 7 17 1 20 -8 4z"/>
<path d="M825 6200 c-3 -6 1 -7 9 -4 18 7 21 14 7 14 -6 0 -13 -4 -16 -10z"/>
<path d="M1076 6193 c-6 -14 -5 -15 5 -6 7 7 10 15 7 18 -3 3 -9 -2 -12 -12z"/>
<path d="M3390 6201 c0 -6 4 -13 10 -16 6 -3 7 1 4 9 -7 18 -14 21 -14 7z"/>
<path d="M2320 6160 c-9 -6 -10 -10 -3 -10 6 0 15 5 18 10 8 12 4 12 -15 0z"/>
<path d="M2719 6153 c-13 -16 -12 -17 4 -4 16 13 21 21 13 21 -2 0 -10 -8 -17
-17z"/>
<path d="M3670 6156 c7 -7 13 -7 20 0 6 6 3 10 -10 10 -13 0 -16 -4 -10 -10z"/>
<path d="M5187 6159 c7 -7 15 -10 18 -7 3 3 -2 9 -12 12 -14 6 -15 5 -6 -5z"/>
<path d="M5580 6166 c0 -2 8 -10 18 -17 15 -13 16 -12 3 4 -13 16 -21 21 -21
13z"/>
<path d="M6556 6153 c-6 -14 -5 -15 5 -6 7 7 10 15 7 18 -3 3 -9 -2 -12 -12z"/>
<path d="M4195 6129 c-4 -6 -5 -12 -2 -15 2 -3 7 2 10 11 7 17 1 20 -8 4z"/>
<path d="M5229 6123 c-13 -16 -12 -17 4 -4 9 7 17 15 17 17 0 8 -8 3 -21 -13z"/>
<path d="M4919 6113 c-13 -16 -12 -17 4 -4 9 7 17 15 17 17 0 8 -8 3 -21 -13z"/>
<path d="M476 6087 c3 -10 9 -15 12 -12 3 3 0 11 -7 18 -10 9 -11 8 -5 -6z"/>
<path d="M3110 6096 c0 -2 8 -10 18 -17 15 -13 16 -12 3 4 -13 16 -21 21 -21
13z"/>
<path d="M6230 6096 c0 -2 8 -10 18 -17 15 -13 16 -12 3 4 -13 16 -21 21 -21
13z"/>
<path d="M30 6079 c0 -5 5 -7 10 -4 6 3 10 8 10 11 0 2 -4 4 -10 4 -5 0 -10
-5 -10 -11z"/>
<path d="M550 6081 c0 -6 4 -13 10 -16 6 -3 7 1 4 9 -7 18 -14 21 -14 7z"/>
<path d="M3190 6078 c0 -4 4 -8 9 -8 6 0 12 4 15 8 3 5 -1 9 -9 9 -8 0 -15 -4
-15 -9z"/>
<path d="M4705 6080 c-3 -6 1 -7 9 -4 18 7 21 14 7 14 -6 0 -13 -4 -16 -10z"/>
<path d="M5426 6062 c-3 -5 1 -9 9 -9 8 0 12 4 9 9 -3 4 -7 8 -9 8 -2 0 -6 -4
-9 -8z"/>
<path d="M4436 6033 c-6 -14 -5 -15 5 -6 7 7 10 15 7 18 -3 3 -9 -2 -12 -12z"/>
<path d="M1265 5999 c-3 -4 2 -6 10 -5 21 3 28 13 10 13 -9 0 -18 -4 -20 -8z"/>
<path d="M1347 5999 c7 -7 15 -10 18 -7 3 3 -2 9 -12 12 -14 6 -15 5 -6 -5z"/>
<path d="M2640 6000 c-9 -6 -10 -10 -3 -10 6 0 15 5 18 10 8 12 4 12 -15 0z"/>
<path d="M2710 6001 c0 -6 4 -13 10 -16 6 -3 7 1 4 9 -7 18 -14 21 -14 7z"/>
<path d="M3600 6000 c-9 -6 -10 -10 -3 -10 6 0 15 5 18 10 8 12 4 12 -15 0z"/>
<path d="M3747 5999 c7 -7 15 -10 18 -7 3 3 -2 9 -12 12 -14 6 -15 5 -6 -5z"/>
<path d="M6480 6000 c-9 -6 -10 -10 -3 -10 6 0 15 5 18 10 8 12 4 12 -15 0z"/>
<path d="M3873 5965 c0 -8 4 -15 9 -15 4 0 8 4 8 9 0 6 -4 12 -8 15 -5 3 -9
-1 -9 -9z"/>
<path d="M1879 5953 c-13 -16 -12 -17 4 -4 16 13 21 21 13 21 -2 0 -10 -8 -17
-17z"/>
<path d="M2830 5959 c0 -5 5 -7 10 -4 6 3 10 8 10 11 0 2 -4 4 -10 4 -5 0 -10
-5 -10 -11z"/>
<path d="M5907 5959 c7 -7 15 -10 18 -7 3 3 -2 9 -12 12 -14 6 -15 5 -6 -5z"/>
<path d="M3037 5918 c-10 -5 -25 -7 -33 -4 -8 3 -14 1 -14 -4 0 -6 -9 -10 -19
-10 -11 0 -21 -5 -23 -11 -5 -15 -81 -19 -90 -5 -5 8 -8 7 -8 -2 0 -8 -5 -10
-12 -6 -17 11 -58 11 -58 1 0 -4 -5 -5 -10 -2 -6 4 -8 12 -4 18 3 7 0 5 -8 -3
-7 -9 -22 -15 -33 -15 -11 0 -26 -4 -32 -9 -7 -4 -13 -5 -13 -1 0 4 -6 3 -13
-3 -7 -6 -28 -12 -45 -14 -18 -1 -32 -5 -32 -8 0 -3 -11 -6 -25 -6 -14 -1 -33
-5 -43 -9 -29 -13 -42 -14 -42 -2 0 7 -4 6 -9 -2 -5 -8 -17 -15 -28 -16 -10
-1 -26 -5 -35 -9 -9 -4 -22 -5 -28 -1 -6 4 -9 1 -8 -6 2 -7 -6 -15 -16 -17
-10 -2 -28 -13 -39 -23 -12 -10 -27 -19 -34 -19 -7 0 -13 -7 -13 -16 0 -8 -4
-13 -9 -10 -5 3 -17 -5 -27 -19 -10 -13 -21 -22 -25 -20 -3 3 -16 -3 -27 -13
-11 -9 -30 -25 -42 -35 -11 -10 -25 -15 -30 -12 -6 4 -7 -1 -3 -11 5 -13 3
-16 -10 -11 -9 3 -19 2 -23 -4 -4 -6 -11 -6 -20 2 -12 10 -14 10 -12 -1 3 -11
-9 -15 -59 -22 -7 -1 -13 -5 -13 -9 0 -9 -20 -6 -39 5 -10 6 -12 5 -7 -3 4 -6
0 -14 -11 -17 -49 -16 -150 -64 -188 -90 -40 -27 -154 -145 -161 -166 -3 -10
-10 -18 -15 -18 -5 0 -9 -7 -9 -15 0 -9 -7 -18 -15 -21 -8 -4 -13 -10 -10 -14
8 -13 -14 -62 -25 -55 -6 4 -7 -1 -3 -10 3 -10 0 -21 -8 -27 -10 -7 -11 -11
-2 -14 7 -3 9 -12 6 -20 -3 -7 -8 -12 -12 -9 -4 2 -5 -10 -3 -27 3 -19 -1 -33
-9 -39 -10 -6 -11 -9 -1 -9 8 0 12 -15 12 -43 0 -24 6 -49 13 -56 9 -11 9 -13
0 -7 -8 5 -13 1 -13 -9 0 -9 4 -14 9 -11 8 5 17 -17 21 -49 1 -5 6 -16 12 -22
6 -7 7 -13 2 -13 -5 0 -4 -4 2 -8 6 -4 23 -31 38 -61 l27 -54 -33 -32 c-35
-32 -82 -118 -94 -170 -3 -16 -13 -36 -22 -42 -14 -12 -14 -13 1 -13 10 0 14
-5 11 -15 -4 -8 -10 -13 -14 -10 -5 3 -6 -4 -3 -15 9 -33 -7 -111 -20 -103 -9
5 -9 3 -1 -8 7 -8 10 -27 8 -44 -2 -16 -6 -57 -9 -90 -3 -33 -11 -62 -17 -66
-7 -4 -7 -8 1 -10 16 -6 20 -60 7 -78 -8 -11 -8 -13 2 -7 9 5 12 -3 13 -31 1
-21 3 -49 4 -63 2 -14 6 -59 10 -100 4 -41 11 -80 16 -86 5 -6 6 -14 2 -18
-11 -11 -12 -37 -1 -30 7 5 9 -4 6 -24 -2 -17 -1 -29 3 -27 4 3 10 -2 13 -11
3 -8 2 -12 -4 -9 -6 3 -10 1 -10 -4 0 -6 5 -11 11 -11 7 0 9 -11 5 -30 -3 -18
-2 -29 3 -25 5 3 12 -7 15 -22 15 -68 15 -72 0 -66 -8 3 -14 1 -14 -3 0 -5
-28 -10 -62 -12 -34 -2 -64 -4 -66 -6 -1 -2 -3 -24 -4 -50 0 -26 -6 -53 -12
-59 -14 -15 -50 -70 -52 -79 -1 -5 -2 -15 -3 -24 0 -8 -4 -13 -9 -11 -4 3 -7
-44 -7 -103 0 -59 3 -106 8 -103 4 2 7 -8 7 -24 0 -32 35 -152 78 -268 17 -44
44 -118 61 -164 17 -46 35 -89 41 -96 5 -6 7 -14 4 -18 -6 -6 55 -120 67 -125
5 -2 9 -8 9 -13 0 -15 42 -59 70 -72 16 -9 36 -10 54 -6 36 10 46 4 46 -25 0
-22 23 -103 62 -221 44 -133 156 -372 194 -416 8 -8 14 -19 14 -23 0 -19 151
-208 222 -278 44 -43 81 -78 83 -78 2 0 17 -12 32 -26 15 -15 64 -53 108 -85
44 -32 87 -66 96 -74 9 -8 21 -15 27 -15 7 0 12 -3 12 -7 0 -8 62 -46 69 -43
2 1 7 -3 10 -8 8 -12 161 -93 161 -85 0 3 6 0 14 -6 8 -7 22 -13 32 -15 11 -3
39 -11 64 -20 78 -26 102 -30 236 -32 87 -2 148 1 182 11 29 7 55 14 57 14 9
3 35 11 53 18 9 3 23 7 30 9 8 1 21 6 30 10 9 4 22 8 27 9 24 6 170 78 173 86
2 5 12 9 23 9 10 0 19 5 19 10 0 6 7 10 15 10 8 0 15 4 15 10 0 5 3 9 8 8 7
-3 81 39 92 52 3 3 22 14 43 25 20 11 37 23 37 27 0 5 7 8 15 8 7 0 18 6 22
13 4 7 22 21 38 32 17 10 35 23 42 29 6 6 33 29 59 51 56 47 163 154 184 185
8 12 30 38 48 58 18 20 40 49 48 65 8 15 19 27 24 27 6 0 10 6 10 14 0 7 12
26 27 42 15 16 26 31 26 34 -1 3 14 31 33 63 19 32 37 69 40 82 3 14 9 25 13
25 3 0 12 15 20 33 7 17 22 50 32 72 10 22 24 58 32 80 8 22 28 77 45 121 17
45 28 85 25 88 -4 3 -2 6 3 7 5 0 19 2 32 3 13 2 25 -1 28 -6 3 -4 9 -6 14 -3
5 3 11 1 14 -3 5 -8 43 -8 89 1 21 4 117 104 117 122 0 7 4 15 8 17 8 3 105
197 122 243 4 11 16 40 26 65 11 24 19 47 19 50 1 3 6 14 12 25 17 33 61 176
73 240 11 56 14 181 5 195 -2 4 -6 19 -9 35 -10 53 -65 121 -118 143 -26 11
-48 16 -48 11 0 -5 -3 -8 -7 -7 -15 4 -85 -35 -113 -63 -16 -16 -33 -29 -39
-29 -17 0 3 113 28 155 3 6 7 19 8 30 2 10 9 23 16 27 9 6 9 8 -2 8 -9 0 -10
4 -3 13 5 6 12 30 15 52 3 22 8 54 12 70 3 17 8 41 10 55 10 47 12 65 25 165
7 55 15 107 18 115 3 8 5 30 4 47 0 18 4 35 9 39 5 3 6 11 2 17 -10 17 -11 47
-1 47 5 0 4 9 -2 20 -8 15 -8 20 2 20 9 0 10 3 2 8 -7 4 -11 39 -10 94 0 49
-2 88 -7 88 -4 0 -6 3 -5 8 1 4 -2 30 -7 57 -8 49 -9 55 -16 85 -2 8 -10 21
-16 28 -7 7 -13 21 -13 30 0 10 -11 29 -25 44 -14 15 -25 32 -25 38 0 5 -4 10
-8 10 -12 0 -34 49 -27 60 3 5 1 11 -4 14 -5 4 -5 23 0 48 7 30 7 43 -2 49 -7
4 -9 14 -6 23 4 9 2 16 -3 16 -6 0 -10 8 -10 18 0 11 -17 36 -37 57 l-37 38
-3 101 c-2 56 -9 117 -15 136 -7 19 -11 38 -10 43 1 4 -2 7 -6 7 -8 0 -36 50
-33 58 1 1 -16 19 -36 40 -21 20 -37 40 -35 45 1 4 -4 6 -10 5 -7 -2 -12 3
-10 10 1 8 -2 11 -7 7 -6 -3 -19 3 -31 15 -11 11 -23 20 -26 20 -4 0 -17 11
-29 24 -13 14 -26 22 -29 19 -3 -4 -6 0 -6 7 0 7 -11 28 -25 45 -13 18 -22 35
-20 39 3 3 2 4 -1 1 -12 -8 -45 16 -38 28 4 7 4 9 -1 5 -11 -10 -47 11 -40 22
3 6 0 7 -7 5 -8 -3 -23 3 -35 14 -11 11 -23 18 -25 16 -2 -3 -19 9 -36 25 -18
16 -32 25 -32 20 0 -6 -9 -2 -20 8 -12 9 -23 16 -26 14 -3 -2 -12 5 -21 15 -8
10 -11 11 -7 3 6 -12 4 -12 -12 1 -28 25 -101 59 -108 52 -3 -4 -6 2 -6 13 0
16 -2 17 -10 4 -8 -12 -10 -12 -10 -1 0 8 -3 12 -6 8 -4 -3 -21 1 -38 10 -17
9 -37 18 -45 19 -8 2 -18 9 -22 16 -7 11 -9 11 -9 0 0 -10 -8 -8 -28 6 -20 15
-32 18 -45 11 -11 -7 -17 -6 -17 1 0 5 -12 10 -26 10 -17 0 -23 4 -18 13 5 8
2 8 -9 -2 -9 -7 -17 -9 -17 -4 0 5 -6 10 -12 10 -14 1 -72 9 -128 19 -19 4
-38 12 -42 18 -5 8 -8 8 -8 0 0 -6 -7 -11 -15 -11 -8 0 -15 3 -15 6 0 7 -20
10 -105 16 -27 2 -86 6 -130 10 -44 4 -111 8 -150 8 -38 1 -73 6 -77 12 -5 7
-8 6 -8 -2 0 -12 -17 -12 -35 -1 -6 3 -18 2 -28 -4z"/>
<path d="M4550 5926 c0 -2 7 -7 16 -10 8 -3 12 -2 9 4 -6 10 -25 14 -25 6z"/>
<path d="M4626 5922 c-2 -4 4 -8 14 -8 10 0 16 4 14 8 -3 4 -9 8 -14 8 -5 0
-11 -4 -14 -8z"/>
<path d="M4705 5920 c-3 -6 1 -7 9 -4 18 7 21 14 7 14 -6 0 -13 -4 -16 -10z"/>
<path d="M1556 5873 c-6 -14 -5 -15 5 -6 7 7 10 15 7 18 -3 3 -9 -2 -12 -12z"/>
<path d="M3865 5880 c-3 -6 1 -7 9 -4 18 7 21 14 7 14 -6 0 -13 -4 -16 -10z"/>
<path d="M2224 5842 c4 -3 14 -7 22 -8 9 -1 13 0 10 4 -4 3 -14 7 -22 8 -9 1
-13 0 -10 -4z"/>
<path d="M1396 5807 c3 -10 9 -15 12 -12 3 3 0 11 -7 18 -10 9 -11 8 -5 -6z"/>
<path d="M1060 5806 c0 -2 8 -10 18 -17 15 -13 16 -12 3 4 -13 16 -21 21 -21
13z"/>
<path d="M5915 4521 c-3 -5 -2 -12 3 -15 5 -3 9 1 9 9 0 17 -3 19 -12 6z"/>
</g>
</svg>
